<svg width="22" height="23" viewBox="0 0 22 23" fill="none" xmlns="http://www.w3.org/2000/svg">
<circle cx="11" cy="11" r="10" stroke="white" stroke-width="2"/>
<path d="M10.12 13.324L9.688 4.9H12.352L11.902 13.324H10.12ZM11.02 17.626C10.6 17.626 10.252 17.488 9.976 17.212C9.7 16.936 9.562 16.606 9.562 16.222C9.562 15.838 9.7 15.514 9.976 15.25C10.252 14.974 10.6 14.836 11.02 14.836C11.44 14.836 11.782 14.974 12.046 15.25C12.31 15.514 12.442 15.838 12.442 16.222C12.442 16.606 12.31 16.936 12.046 17.212C11.782 17.488 11.44 17.626 11.02 17.626Z" fill="white"/>
</svg>
