<svg width="140" height="150" viewBox="0 0 140 150" fill="none" xmlns="http://www.w3.org/2000/svg">
<path d="M139.631 104.563C139.62 104.221 139.609 103.878 139.593 103.536C139.593 103.503 139.593 103.471 139.593 103.438C139.577 103.096 139.555 102.753 139.528 102.411V102.33C139.495 101.976 139.463 101.629 139.43 101.275V101.243C138.99 96.8462 137.903 92.5857 136.186 88.5099C136.18 88.4936 136.175 88.4827 136.169 88.4664L136.159 88.4338C136.034 88.1458 135.909 87.8578 135.784 87.5697C135.756 87.51 135.729 87.4448 135.702 87.385C135.675 87.3252 135.648 87.2654 135.621 87.2002C135.566 87.0807 135.506 86.9611 135.452 86.8415C135.387 86.6948 135.316 86.5535 135.246 86.4068C135.175 86.2546 135.099 86.1079 135.023 85.9557C134.898 85.7057 134.773 85.4612 134.648 85.2167C134.555 85.0373 134.458 84.8526 134.36 84.6732C134.289 84.5482 134.224 84.4232 134.153 84.2982C134.056 84.1243 133.963 83.9559 133.865 83.782C133.8 83.6679 133.735 83.5592 133.67 83.445C133.561 83.2548 133.452 83.0701 133.338 82.8853C133.284 82.7929 133.224 82.7005 133.17 82.6027C133.039 82.3908 132.909 82.1788 132.773 81.9669C132.73 81.9017 132.691 81.8365 132.648 81.7713C132.485 81.5158 132.317 81.2604 132.148 81.005C132.137 80.9833 132.121 80.967 132.11 80.9452C130.686 78.8312 129.078 76.8423 127.301 74.9946C130.746 71.4242 133.534 67.3321 135.621 62.7998C138.3 56.9796 139.658 50.7518 139.658 44.2957C139.658 38.3179 138.485 32.5139 136.175 27.0524C133.941 21.7756 130.751 17.0422 126.686 12.9719C122.622 8.90696 117.883 5.71154 112.606 3.48344C107.144 1.17383 101.34 0 95.3627 0H74.9348C64.8214 0.0108688 55.0069 1.99986 45.7684 5.91262C36.8452 9.69495 28.8349 15.1022 21.9549 21.9875C15.075 28.8729 9.67321 36.8886 5.90175 45.8173C1.98355 55.0721 0 64.8866 0 75.0054C0 85.1243 1.98355 94.9388 5.89088 104.183C9.66234 113.111 15.0641 121.127 21.9441 128.012C28.824 134.898 36.8343 140.305 45.7576 144.087C54.996 148 64.8105 149.995 74.9239 150H95.3518C101.33 150 107.134 148.826 112.595 146.517C117.872 144.283 122.605 141.093 126.676 137.028C130.741 132.963 133.936 128.224 136.164 122.948C138.474 117.486 139.647 111.682 139.647 105.704C139.647 105.351 139.648 104.998 139.637 104.645C139.637 104.617 139.637 104.59 139.637 104.563H139.631ZM133.001 106.677C132.49 126.676 116.318 142.848 96.3191 143.359C95.9985 143.37 95.6724 143.37 95.3464 143.37C74.5816 143.37 57.6806 126.475 57.6806 105.704C57.6806 84.9341 74.5761 68.0386 95.3464 68.0386C109.932 68.0386 122.611 76.3749 128.866 88.5371C131.251 93.1943 132.664 98.3407 132.952 103.645C132.952 103.661 132.952 103.677 132.952 103.694C132.969 103.987 132.98 104.28 132.99 104.574C132.99 104.617 132.99 104.661 132.99 104.704C133.001 105.036 133.001 105.367 133.001 105.704C133.001 106.041 133.001 106.351 132.99 106.677H133.001ZM133.012 44.3066C133.012 54.1483 129.148 63.5715 122.334 70.5764C119.35 68.2777 116.089 66.3756 112.595 64.892C107.134 62.5824 101.33 61.4086 95.3518 61.4086C89.374 61.4086 83.6679 62.5607 78.2443 64.8377V6.64082H95.3518C116.122 6.64082 133.018 23.5363 133.018 44.3066H133.012ZM6.62995 75.0054C6.62995 38.4537 35.4866 8.49395 71.6144 6.72777V68.2994C68.8863 70.033 66.3485 72.0654 64.0334 74.3859C59.9685 78.4508 56.7731 83.1896 54.545 88.4664C52.2353 93.928 51.0615 99.7319 51.0615 105.71C51.0615 111.688 52.2353 117.491 54.545 122.953C56.7785 128.23 59.9685 132.963 64.0334 137.034C66.4354 139.436 69.0765 141.533 71.9187 143.305C35.6496 141.691 6.63539 111.66 6.63539 75.0109L6.62995 75.0054Z" fill="#4200FF"/>
</svg>
