<svg width="41" height="41" viewBox="0 0 41 41" fill="none" xmlns="http://www.w3.org/2000/svg">
<path d="M20.3441 40.3L14.3969 34.5099H6.20309V26.289L0.300003 20.3663L6.20309 14.4436V6.22266H14.3969L20.3441 0.300003L26.2031 6.22266H34.3969V14.4436L40.3 20.3663L34.3969 26.289V34.5099H26.2031L20.3441 40.3ZM20.3441 31.858C23.5159 31.858 26.2104 30.7383 28.4278 28.4989C30.6451 26.2595 31.7537 23.5339 31.7537 20.3221C31.7537 17.1398 30.6451 14.4363 28.4278 12.2116C26.2104 9.98693 23.5159 8.87459 20.3441 8.87459V31.858ZM20.3441 36.5873L25.1018 31.858H31.7537V25.184L36.5555 20.3663L31.7537 15.5486V8.87459H25.1018L20.3441 4.05691L15.4982 8.87459H8.84626V15.5486L4.0445 20.3663L8.84626 25.184V31.858H15.4542L20.3441 36.5873Z" fill="black"/>
</svg>
